<?xml version="1.0" encoding="iso-8859-1"?>
<!-- Generator: Adobe Illustrator 19.0.0, SVG Export Plug-In . SVG Version: 6.00 Build 0)  -->
<svg version="1.1" id="Layer_1" xmlns="http://www.w3.org/2000/svg" xmlns:xlink="http://www.w3.org/1999/xlink" x="0px" y="0px"
	 viewBox="0 0 512 512" style="enable-background:new 0 0 512 512;" xml:space="preserve">
<g>
	<g>
		<path d="M0,31.67v448.66h512V31.67H0z M496.165,464.495H15.835V121.402h480.33V464.495z M496.165,105.567H15.835V47.505h480.33
			V105.567z"/>
	</g>
</g>
<g>
	<g>
		<rect x="39.588" y="68.619" width="21.113" height="15.835"/>
	</g>
</g>
<g>
	<g>
		<rect x="71.258" y="68.619" width="21.113" height="15.835"/>
	</g>
</g>
<g>
	<g>
		<rect x="451.299" y="68.619" width="21.113" height="15.835"/>
	</g>
</g>
<g>
	<g>
		<path d="M36.948,142.515v300.866h438.103V142.515H36.948z M190.021,427.546H52.784V158.351h137.237V427.546z M459.216,427.546
			H205.856V158.351h253.361V427.546z"/>
	</g>
</g>
<g>
	<g>
		<path d="M121.402,174.186c-29.105,0-52.784,23.679-52.784,52.784c0,29.105,23.679,52.784,52.784,52.784
			c29.105,0,52.784-23.679,52.784-52.784C174.186,197.864,150.507,174.186,121.402,174.186z M121.402,263.918
			c-20.373,0-36.948-16.575-36.948-36.948c0-20.373,16.575-36.948,36.948-36.948c20.373,0,36.948,16.575,36.948,36.948
			C158.351,247.342,141.775,263.918,121.402,263.918z"/>
	</g>
</g>
<g>
	<g>
		<rect x="65.979" y="300.866" width="21.113" height="15.835"/>
	</g>
</g>
<g>
	<g>
		<rect x="65.979" y="337.814" width="100.289" height="15.835"/>
	</g>
</g>
<g>
	<g>
		<rect x="65.979" y="374.763" width="100.289" height="15.835"/>
	</g>
</g>
<g>
	<g>
		<rect x="97.649" y="300.866" width="47.505" height="15.835"/>
	</g>
</g>
<g>
	<g>
		<rect x="155.711" y="300.866" width="21.113" height="15.835"/>
	</g>
</g>
<g>
	<g>
		<path d="M226.969,179.464v121.402h211.134V179.464H226.969z M422.268,285.031H242.804v-89.732h179.464V285.031z"/>
	</g>
</g>
<g>
	<g>
		<rect x="419.629" y="321.979" width="21.113" height="15.835"/>
	</g>
</g>
<g>
	<g>
		<rect x="387.959" y="321.979" width="21.113" height="15.835"/>
	</g>
</g>
<g>
	<g>
		<rect x="224.33" y="321.979" width="21.113" height="15.835"/>
	</g>
</g>
<g>
	<g>
		<rect x="224.33" y="353.649" width="216.412" height="15.835"/>
	</g>
</g>
<g>
	<g>
		<rect x="224.33" y="385.32" width="216.412" height="15.835"/>
	</g>
</g>
<g>
	<g>
		<polygon points="263.918,216.412 263.918,250.722 279.753,250.722 279.753,232.247 298.227,232.247 298.227,216.412 		"/>
	</g>
</g>
<g>
</g>
<g>
</g>
<g>
</g>
<g>
</g>
<g>
</g>
<g>
</g>
<g>
</g>
<g>
</g>
<g>
</g>
<g>
</g>
<g>
</g>
<g>
</g>
<g>
</g>
<g>
</g>
<g>
</g>
</svg>
